<mxfile host="www.draw.io" modified="2019-10-31T16:58:40.023Z" agent="Mozilla/5.0 (Windows NT 10.0; Win64; x64) AppleWebKit/537.36 (KHTML, like Gecko) Chrome/77.0.3865.120 Safari/537.36" etag="CSQEy1JKL4mYYMgT7CYl" version="12.1.9" type="github" pages="1">
  <diagram id="6a731a19-8d31-9384-78a2-239565b7b9f0" name="Page-1">
    <mxGraphModel dx="1536" dy="864" grid="1" gridSize="10" guides="1" tooltips="1" connect="1" arrows="1" fold="1" page="1" pageScale="1" pageWidth="1169" pageHeight="827" background="#ffffff" math="0" shadow="0">
      <root>
        <mxCell id="0"/>
        <mxCell id="1" parent="0"/>
        <mxCell id="2" value="end" style="shape=mxgraph.flowchart.terminator;fillColor=#FFFFFF;strokeColor=#000000;strokeWidth=2;gradientColor=none;gradientDirection=north;fontColor=#001933;fontStyle=0;html=1;" parent="1" vertex="1">
          <mxGeometry x="205" y="760" width="120" height="30" as="geometry"/>
        </mxCell>
        <mxCell id="_f4XMj2HdiAkjGpJl35G-65" style="edgeStyle=orthogonalEdgeStyle;rounded=0;orthogonalLoop=1;jettySize=auto;html=1;exitX=0.5;exitY=1;exitDx=0;exitDy=0;exitPerimeter=0;entryX=0.5;entryY=0;entryDx=0;entryDy=0;" edge="1" parent="1" source="3" target="qD44LH4xJsnaG0KL7WGG-79">
          <mxGeometry relative="1" as="geometry"/>
        </mxCell>
        <mxCell id="_f4XMj2HdiAkjGpJl35G-67" style="edgeStyle=orthogonalEdgeStyle;rounded=0;orthogonalLoop=1;jettySize=auto;html=1;exitX=0.095;exitY=0.5;exitDx=0;exitDy=0;exitPerimeter=0;entryX=0;entryY=0.5;entryDx=0;entryDy=0;" edge="1" parent="1" source="3" target="qD44LH4xJsnaG0KL7WGG-97">
          <mxGeometry relative="1" as="geometry">
            <Array as="points">
              <mxPoint x="145" y="110"/>
              <mxPoint x="145" y="440"/>
            </Array>
          </mxGeometry>
        </mxCell>
        <mxCell id="3" value="get location data" style="shape=mxgraph.flowchart.data;fillColor=#FFFFFF;strokeColor=#000000;strokeWidth=2;gradientColor=none;gradientDirection=north;fontColor=#001933;fontStyle=0;html=1;" parent="1" vertex="1">
          <mxGeometry x="185.5" y="70" width="159" height="80" as="geometry"/>
        </mxCell>
        <mxCell id="qD44LH4xJsnaG0KL7WGG-77" style="edgeStyle=orthogonalEdgeStyle;rounded=0;orthogonalLoop=1;jettySize=auto;html=1;exitX=0.905;exitY=0.5;exitDx=0;exitDy=0;exitPerimeter=0;entryX=0.167;entryY=0.492;entryDx=0;entryDy=0;entryPerimeter=0;strokeColor=none;" parent="1" source="qD44LH4xJsnaG0KL7WGG-97" edge="1">
          <mxGeometry relative="1" as="geometry">
            <mxPoint x="485" y="440.33333333333337" as="targetPoint"/>
          </mxGeometry>
        </mxCell>
        <mxCell id="_f4XMj2HdiAkjGpJl35G-52" style="edgeStyle=orthogonalEdgeStyle;rounded=0;orthogonalLoop=1;jettySize=auto;html=1;exitX=0.5;exitY=1;exitDx=0;exitDy=0;exitPerimeter=0;entryX=0.5;entryY=0;entryDx=0;entryDy=0;entryPerimeter=0;" edge="1" parent="1" source="6" target="qD44LH4xJsnaG0KL7WGG-92">
          <mxGeometry relative="1" as="geometry"/>
        </mxCell>
        <mxCell id="_f4XMj2HdiAkjGpJl35G-57" style="edgeStyle=orthogonalEdgeStyle;rounded=0;orthogonalLoop=1;jettySize=auto;html=1;exitX=1;exitY=0.5;exitDx=0;exitDy=0;exitPerimeter=0;endArrow=none;endFill=0;" edge="1" parent="1" source="6" target="qD44LH4xJsnaG0KL7WGG-84">
          <mxGeometry relative="1" as="geometry"/>
        </mxCell>
        <mxCell id="6" value="same &lt;br&gt;road state?" style="shape=mxgraph.flowchart.decision;fillColor=#FFFFFF;strokeColor=#000000;strokeWidth=2;gradientColor=none;gradientDirection=north;fontColor=#001933;fontStyle=0;html=1;" parent="1" vertex="1">
          <mxGeometry x="216" y="570" width="98" height="57" as="geometry"/>
        </mxCell>
        <mxCell id="11" value="yes" style="text;fontColor=#001933;fontStyle=0;html=1;strokeColor=none;gradientColor=none;fillColor=none;strokeWidth=2;" parent="1" vertex="1">
          <mxGeometry x="234.5" y="620" width="40" height="26" as="geometry"/>
        </mxCell>
        <mxCell id="14" value="no" style="text;fontColor=#001933;fontStyle=0;html=1;strokeColor=none;gradientColor=none;fillColor=none;strokeWidth=2;align=center;" parent="1" vertex="1">
          <mxGeometry x="303.5" y="570" width="40" height="26" as="geometry"/>
        </mxCell>
        <mxCell id="_f4XMj2HdiAkjGpJl35G-64" style="edgeStyle=orthogonalEdgeStyle;rounded=0;orthogonalLoop=1;jettySize=auto;html=1;exitX=0.5;exitY=1;exitDx=0;exitDy=0;entryX=0.5;entryY=0;entryDx=0;entryDy=0;" edge="1" parent="1" source="qD44LH4xJsnaG0KL7WGG-79" target="qD44LH4xJsnaG0KL7WGG-96">
          <mxGeometry relative="1" as="geometry"/>
        </mxCell>
        <mxCell id="qD44LH4xJsnaG0KL7WGG-79" value="&lt;span style=&quot;color: rgb(0 , 25 , 51)&quot;&gt;check for&lt;/span&gt;&lt;br style=&quot;color: rgb(0 , 25 , 51)&quot;&gt;&lt;span style=&quot;color: rgb(0 , 25 , 51)&quot;&gt;current road&lt;/span&gt;" style="rounded=1;whiteSpace=wrap;html=1;" parent="1" vertex="1">
          <mxGeometry x="205" y="170" width="120" height="60" as="geometry"/>
        </mxCell>
        <mxCell id="_f4XMj2HdiAkjGpJl35G-59" style="edgeStyle=orthogonalEdgeStyle;rounded=0;orthogonalLoop=1;jettySize=auto;html=1;exitX=0.5;exitY=0;exitDx=0;exitDy=0;entryX=1;entryY=0.5;entryDx=0;entryDy=0;" edge="1" parent="1" source="qD44LH4xJsnaG0KL7WGG-84" target="qD44LH4xJsnaG0KL7WGG-96">
          <mxGeometry relative="1" as="geometry"/>
        </mxCell>
        <mxCell id="qD44LH4xJsnaG0KL7WGG-84" value="change road state&amp;nbsp;" style="rounded=1;whiteSpace=wrap;html=1;" parent="1" vertex="1">
          <mxGeometry x="375" y="568.5" width="120" height="60" as="geometry"/>
        </mxCell>
        <mxCell id="_f4XMj2HdiAkjGpJl35G-61" style="edgeStyle=orthogonalEdgeStyle;rounded=0;orthogonalLoop=1;jettySize=auto;html=1;exitX=0.5;exitY=1;exitDx=0;exitDy=0;" edge="1" parent="1" source="qD44LH4xJsnaG0KL7WGG-89">
          <mxGeometry relative="1" as="geometry">
            <mxPoint x="265" y="410" as="targetPoint"/>
          </mxGeometry>
        </mxCell>
        <mxCell id="qD44LH4xJsnaG0KL7WGG-89" value="&lt;span style=&quot;color: rgb(0 , 25 , 51) ; white-space: normal&quot;&gt;transition&lt;/span&gt;&lt;br style=&quot;color: rgb(0 , 25 , 51) ; white-space: normal&quot;&gt;&lt;span style=&quot;color: rgb(0 , 25 , 51) ; white-space: normal&quot;&gt;&amp;nbsp;probability&lt;/span&gt;" style="rounded=1;whiteSpace=wrap;html=1;" parent="1" vertex="1">
          <mxGeometry x="205" y="330" width="120" height="60" as="geometry"/>
        </mxCell>
        <mxCell id="qD44LH4xJsnaG0KL7WGG-90" style="edgeStyle=orthogonalEdgeStyle;rounded=0;orthogonalLoop=1;jettySize=auto;html=1;exitX=0.905;exitY=0.5;exitDx=0;exitDy=0;exitPerimeter=0;entryX=0.167;entryY=0.492;entryDx=0;entryDy=0;entryPerimeter=0;strokeColor=none;" parent="1" target="qD44LH4xJsnaG0KL7WGG-89" edge="1">
          <mxGeometry relative="1" as="geometry">
            <mxPoint x="330" y="440.33333333333337" as="sourcePoint"/>
            <mxPoint x="485" y="440.33333333333337" as="targetPoint"/>
          </mxGeometry>
        </mxCell>
        <mxCell id="_f4XMj2HdiAkjGpJl35G-58" style="edgeStyle=orthogonalEdgeStyle;rounded=0;orthogonalLoop=1;jettySize=auto;html=1;exitX=0.5;exitY=1;exitDx=0;exitDy=0;entryX=0.5;entryY=0;entryDx=0;entryDy=0;entryPerimeter=0;" edge="1" parent="1" source="qD44LH4xJsnaG0KL7WGG-91" target="6">
          <mxGeometry relative="1" as="geometry"/>
        </mxCell>
        <mxCell id="qD44LH4xJsnaG0KL7WGG-91" value="&lt;font color=&quot;#001933&quot;&gt;viterbi&lt;/font&gt;" style="rounded=1;whiteSpace=wrap;html=1;" parent="1" vertex="1">
          <mxGeometry x="205" y="490" width="120" height="60" as="geometry"/>
        </mxCell>
        <mxCell id="_f4XMj2HdiAkjGpJl35G-56" style="edgeStyle=orthogonalEdgeStyle;rounded=0;orthogonalLoop=1;jettySize=auto;html=1;exitX=0.5;exitY=1;exitDx=0;exitDy=0;exitPerimeter=0;entryX=0.5;entryY=0;entryDx=0;entryDy=0;entryPerimeter=0;" edge="1" parent="1" source="qD44LH4xJsnaG0KL7WGG-92" target="2">
          <mxGeometry relative="1" as="geometry"/>
        </mxCell>
        <mxCell id="qD44LH4xJsnaG0KL7WGG-92" value="show the location&lt;br&gt;on the road" style="shape=mxgraph.flowchart.data;fillColor=#FFFFFF;strokeColor=#000000;strokeWidth=2;gradientColor=none;gradientDirection=north;fontColor=#001933;fontStyle=0;html=1;" parent="1" vertex="1">
          <mxGeometry x="185.5" y="659" width="159" height="80" as="geometry"/>
        </mxCell>
        <mxCell id="_f4XMj2HdiAkjGpJl35G-60" style="edgeStyle=orthogonalEdgeStyle;rounded=0;orthogonalLoop=1;jettySize=auto;html=1;exitX=0.5;exitY=1;exitDx=0;exitDy=0;entryX=0.5;entryY=0;entryDx=0;entryDy=0;" edge="1" parent="1" source="qD44LH4xJsnaG0KL7WGG-96" target="qD44LH4xJsnaG0KL7WGG-89">
          <mxGeometry relative="1" as="geometry"/>
        </mxCell>
        <mxCell id="qD44LH4xJsnaG0KL7WGG-96" value="set current road state" style="rounded=1;whiteSpace=wrap;html=1;" parent="1" vertex="1">
          <mxGeometry x="203.5" y="250" width="120" height="60" as="geometry"/>
        </mxCell>
        <mxCell id="_f4XMj2HdiAkjGpJl35G-62" style="edgeStyle=orthogonalEdgeStyle;rounded=0;orthogonalLoop=1;jettySize=auto;html=1;exitX=0.5;exitY=1;exitDx=0;exitDy=0;entryX=0.5;entryY=0;entryDx=0;entryDy=0;" edge="1" parent="1" source="qD44LH4xJsnaG0KL7WGG-97" target="qD44LH4xJsnaG0KL7WGG-91">
          <mxGeometry relative="1" as="geometry"/>
        </mxCell>
        <mxCell id="qD44LH4xJsnaG0KL7WGG-97" value="&lt;span style=&quot;white-space: normal ; color: rgb(0 , 25 , 51)&quot;&gt;emission probability&lt;/span&gt;" style="rounded=1;whiteSpace=wrap;html=1;" parent="1" vertex="1">
          <mxGeometry x="203.5" y="410" width="120" height="60" as="geometry"/>
        </mxCell>
        <mxCell id="qD44LH4xJsnaG0KL7WGG-98" style="edgeStyle=orthogonalEdgeStyle;rounded=0;orthogonalLoop=1;jettySize=auto;html=1;exitX=0.905;exitY=0.5;exitDx=0;exitDy=0;exitPerimeter=0;entryX=0.167;entryY=0.492;entryDx=0;entryDy=0;entryPerimeter=0;strokeColor=none;" parent="1" source="qD44LH4xJsnaG0KL7WGG-89" target="qD44LH4xJsnaG0KL7WGG-97" edge="1">
          <mxGeometry relative="1" as="geometry">
            <mxPoint x="213.33333333333348" y="410.3333333333335" as="sourcePoint"/>
            <mxPoint x="485" y="440.3333333333335" as="targetPoint"/>
          </mxGeometry>
        </mxCell>
        <mxCell id="_f4XMj2HdiAkjGpJl35G-66" style="edgeStyle=orthogonalEdgeStyle;rounded=0;orthogonalLoop=1;jettySize=auto;html=1;exitX=0.5;exitY=1;exitDx=0;exitDy=0;exitPerimeter=0;entryX=0.5;entryY=0.125;entryDx=0;entryDy=0;entryPerimeter=0;" edge="1" parent="1" source="_f4XMj2HdiAkjGpJl35G-45" target="3">
          <mxGeometry relative="1" as="geometry"/>
        </mxCell>
        <mxCell id="_f4XMj2HdiAkjGpJl35G-45" value="start" style="shape=mxgraph.flowchart.terminator;fillColor=#FFFFFF;strokeColor=#000000;strokeWidth=2;gradientColor=none;gradientDirection=north;fontColor=#001933;fontStyle=0;html=1;" vertex="1" parent="1">
          <mxGeometry x="214.5" y="20" width="120" height="30" as="geometry"/>
        </mxCell>
      </root>
    </mxGraphModel>
  </diagram>
</mxfile>
